<?xml version="1.0" encoding="utf-8"?>
<!-- Generator: Adobe Illustrator 23.0.5, SVG Export Plug-In . SVG Version: 6.00 Build 0)  -->
<svg version="1.1" id="Layer_1" xmlns="http://www.w3.org/2000/svg" xmlns:xlink="http://www.w3.org/1999/xlink" x="0px" y="0px"
	 viewBox="0 0 392.51 179.55" style="enable-background:new 0 0 392.51 179.55;" xml:space="preserve">
<style type="text/css">
	.st0{fill:#211B5B;}
	.st1{fill:#221C5B;}
	.st2{fill:#221C5C;}
	.st3{fill:#231D5C;}
	.st4{fill:#221D5C;}
	.st5{fill:#251F5E;}
	.st6{fill:#E6E5EC;}
	.st7{fill:#FEFEFE;}
	.st8{fill:#F6F6F8;}
	.st9{fill:#DEDDE6;}
	.st10{fill:#BFBDCF;}
	.st11{fill:#F8F8FA;}
	.st12{fill:#D6D5E0;}
	.st13{fill:#DDDDE6;}
	.st14{fill:#E6E6ED;}
	.st15{fill:#DFDEE7;}
	.st16{fill:#BFBED0;}
	.st17{fill:#EDECF1;}
	.st18{fill:#E4E3EB;}
	.st19{fill:#E0E0E8;}
	.st20{fill:#F0F0F4;}
	.st21{fill:#241E5D;}
</style>
<g>
	<g>
		<g>
			<path class="st0" d="M82.62,129.59c-2.73-0.35-5.26-0.74-7.8-0.99c-2.61-0.25-4.97-0.89-6.65-3.11c-0.92-1.22-0.8-2.08,0.62-2.72
				c1.35-0.61,2.6-1.35,3.86-2.12c1.46-0.89,3.15-1.02,4.8-1.13c3.77-0.26,6.98-1.45,9.19-4.74c1.58-2.35,4.06-3.17,6.7-3.36
				c1.96-0.14,3.46-0.79,4.44-2.52c0.11-0.2,0.25-0.39,0.42-0.55c3.64-3.41,8.01-5.45,12.78-6.72c1.13-0.3,2.3,0.01,3.44,0.13
				c2.75,0.29,5.45,0.82,8.13,1.48c0.91,0.22,1.7,0.7,2.43,1.27c0.62,0.49,1.31,0.83,2.07,1.08c2.05,0.66,3.73,0.36,5.06-1.55
				c1.16-1.66,2.61-3.12,4.21-4.37c4.85-3.8,10.19-4.46,15.8-2.03c3.41,1.48,6.76,3.14,9.85,5.24c0.85,0.57,1.37,0.33,2.17-0.2
				c4.37-2.92,8.06-6.74,12.42-9.64c3.34-2.22,6.99-3.54,11.09-2.05c0.39,0.14,0.8,0.22,1.21,0.27c1.7,0.23,2.07-0.04,2.35-1.7
				c0.14-0.81,0.59-1.45,1.07-2.06c2.15-2.7,4.37-5.35,6.49-8.07c2.43-3.12,5.7-4.81,9.37-6c8.96-2.91,17.8-2.49,26.44,1.09
				c6.05,2.51,10.6,6.77,14.02,12.4c1.8,2.96,3.41,5.98,4.9,9.09c0.12,0.24,0.29,0.54,0.24,0.77c-0.41,1.85,0.95,2.27,2.19,2.46
				c4.67,0.71,8.21,3.52,11.83,6.19c2.64,1.95,5.35,3.69,8.79,3.88c3.12,0.17,5.91,1.65,8.9,2.36c0.68,0.16,1.11,0.79,1.5,1.38
				c0.71,1.07,1.54,2.09,2.12,3.23c2.04,4.02,5.47,6.45,9.47,8.05c4,1.6,8,3.29,12.35,3.81c1.19,0.14,2.37,0.3,3.56,0.46
				c1.56,0.21,2.28,0.93,2.39,2.36c0.11,1.52-0.27,2.01-1.92,2.52c-0.44,0.14-0.92,0.23-1.28,0.48c-3.13,2.17-6.52,1.19-9.91,1.04
				c-3.52-0.15-6.97-1.48-10.54-0.63c-0.95,0.22-1.84,0.58-2.69,1.05c-0.8,0.44-0.94,0.89,0.03,1.27c0.64,0.25,1.31,0.41,1.94,0.68
				c2.01,0.84,3.94,1.81,5.24,3.67c0.26,0.37,0.68,0.46,0.97,0.74c0.38,0.38,1.32,0.32,1.12,1.1c-0.18,0.72-1.95,1.23-2.58,0.78
				c-2.52-1.78-5.53-2.72-7.95-4.68c-1.17-0.95-2.55-1.06-3.93-0.61c-1.44,0.46-2.89,0.54-4.37,0.38c-1.38-0.15-2.66,0.08-3.78,0.94
				c-1.31,1.02-2.67,1.07-4.13,0.33c-0.99-0.5-2.06-0.77-3.16-0.94c-1.63-0.26-3.28-0.46-4.63-1.59c-0.53-0.45-1.2-0.41-1.84-0.18
				c-0.65,0.23-1.34,0.39-1.94,0.71c-3.97,2.14-7.96,0.6-11.96,0.13c-2.28-0.27-4.51-1.1-6.82-0.93c-2.06,0.14-4.09,0.61-6.14,0.94
				c-1.63,0.27-3.24,0.66-4.92,0.56c-2.76-0.17-5-1.4-7-3.23c-3.03-2.78-6.62-3.05-10.38-2.09c-1.16,0.3-2.24,0.44-3.36,0.01
				c-1.25-0.48-2.49-0.61-3.76-0.05c-0.91,0.41-1.86,0.16-2.7-0.14c-1.96-0.72-3.82-0.37-5.66,0.29c-1.47,0.53-2.88,1.2-4.31,1.83
				c-1.68,0.74-3.34,1.54-5.17,1.89c-1.65,0.31-2.73,1.24-2.68,2.98c0.07,2.55-2.18,2.57-3.62,1.32c-0.61-0.53-1.32-0.84-2.07-1.06
				c-1.42-0.42-2.77-0.89-4-1.79c-1.04-0.76-2.31-0.55-3.45-0.1c-1.22,0.48-2.22,0.32-3.35-0.42c-1.21-0.79-2.63-1.29-4.01-1.78
				c-0.93-0.33-1.79,0.11-2.6,0.6c-5.19,3.18-10.73,5.64-16.29,8.08c-0.63,0.28-1.29,0.52-2.01,0.32c-0.53-0.15-1.14-0.24-1.25-0.91
				c-0.11-0.67,0.39-0.97,0.9-1.23c1.96-1.01,3.92-2.03,5.87-3.06c0.43-0.23,1.13-0.39,0.99-0.97c-0.11-0.49-0.79-0.55-1.29-0.63
				c-3.25-0.51-6.33-1.58-9.28-2.97c-2.12-1-4.24-2.01-6.46-2.77c-5.25-1.81-9.87-4.89-14.88-7.19c-1.59-0.73-3.13-1.01-4.9-1
				c-2.31,0.01-4.42-1.14-6.37-2.34c-1.72-1.06-2.39-1.32-3.75,0.15c-3.47,3.74-8.4,4.6-12.67,6.76c-3.36-0.51-5.3,2.27-7.92,3.46
				c-2.09,0.94-4.04,2.19-6.17,3.06c-1.23,0.51-2.43,0.98-3.84,0.92c-1.42-0.07-2.61,0.79-3.82,1.46c-2.54,1.41-5.18,2.58-7.94,3.49
				c-0.63,0.21-1.25,0.3-1.9,0.14c-0.32-0.08-0.65-0.17-0.7-0.56c-0.06-0.41,0.26-0.56,0.55-0.69c1.94-0.87,3.67-2.11,5.53-3.11
				c1.24-0.67,2.48-1.28,3.53-2.3c1.29-1.26,3.11-1.27,4.79-1.48c1.5-0.18,2.86-0.6,4.02-1.63c0.7-0.62,1.57-0.95,2.47-1.17
				C81.46,130.65,82.09,130.42,82.62,129.59z"/>
			<path class="st0" d="M152.89,157.01c1.04-0.63,2.2-0.81,3.3-1.12c2.03-0.57,3.48-1.62,3.81-3.85c0.07-0.49,0.21-1.08,0.83-1.11
				c0.57-0.03,0.52,0.51,0.62,0.9c0.08,0.34,0.32,0.54,0.67,0.62c0.32,0.07,0.68,0.14,0.76,0.51c0.58,2.66,3.1,2.58,4.93,3.44
				c1.09,0.51,1.97,0.1,2.43-1.06c0.27-0.67,0.65-1.32,1.48-1.17c0.8,0.15,1.27,0.74,1.27,1.58c0,0.69,0.36,0.89,0.96,0.83
				c0.55-0.05,1.1-0.08,1.65-0.18c1.05-0.2,1.92-0.15,2.26,1.13c0.19,0.72,0.87,0.87,1.49,1.07c2.8,0.9,5.67,0.48,8.51,0.45
				c1.25-0.01,2.48,0.2,3.72,0.27c0.6,0.03,1.23,0.34,1.37,0.98c0.13,0.58-0.48,0.83-0.87,1.13c-0.99,0.78-2.1,1.34-3.31,1.66
				c-0.73,0.2-1.57,0.76-2.21-0.29c-0.21-0.34-0.59,0-0.89,0.06c-1.96,0.4-3.94,0.19-5.91,0.26c-3.51,0.14-6.95-0.88-10.52-0.07
				c-2.86,0.64-5.89,0.06-8.77-0.57c-2.43-0.53-4.75-0.53-7.22-0.23c-4.1,0.51-8.26,0.65-12.39,0.72c-1.63,0.03-3.19,0.39-4.8,0.45
				c-3.64,0.13-7.27,0.33-10.91,0.43c-1.58,0.04-3.1-0.08-4.05-1.74c-0.38-0.67-1.23-0.9-1.92-0.3c-0.51,0.45-1.07,0.5-1.66,0.5
				c-2.35,0.01-4.7,0.05-7.05-0.01c-2.21-0.06-4.36,0.08-6.57,0.43c-2.33,0.36-4.79,0.87-7.12,0.4c-1.2-0.24-2.05-0.3-3.27,0.06
				c-2.62,0.78-5.45,0.8-8.16,0.74c-4.15-0.09-8.26,0.53-12.41,0.43c-1.01-0.02-2,0.15-2.93-0.42c-0.5-0.32-1.06-0.5-0.89-1.33
				c0.14-0.7-0.54-0.66-0.99-0.87c-4.54-2.09-9.23-1.17-13.86-0.58c-3.4,0.43-6.69,0.28-9.98-0.61c-0.92-0.25-1.7-0.62-2.37-1.31
				c-0.56-0.58-1.06-1.23-2.07-1.09c-0.57,0.08-0.88-0.5-0.93-1.02c-0.1-1.13-0.62-0.85-1.27-0.48c-1.35,0.75-1.6,0.61-1.52-0.9
				c0.08-1.49,0.23-2.98,1.99-3.57c0.51-0.17,0.6-0.66,0.65-1.13c0.06-0.55,0.06-1.11,0.18-1.65c0.16-0.75,0.22-1.61,1.18-1.85
				c1.02-0.26,1.72,0.33,2.21,1.04c0.74,1.06,1.1,0.98,1.44-0.23c0.11-0.38,0.41-0.7,0.65-1.04c0.17-0.25,0.67-0.35,0.68-0.28
				c0.22,1.16,2.08,1.08,1.89,2.61c-0.1,0.79,0.11,1.63,0.98,2.13c0.57,0.33,0.42,1.06,0.63,1.6c0.08,0.2,0.2,0.5,0.35,0.54
				c0.3,0.07,0.47-0.22,0.56-0.48c0.34-0.92,0.63-1.91,0.42-2.84c-0.49-2.1,1.04-3.31,1.88-4.83c0.26-0.47,0.59-0.12,0.8,0.05
				c0.63,0.49,1.26,1.07,1.33,1.87c0.11,1.22,0.95,2.23,0.73,3.57c-0.16,0.99,0.53,1.24,1.5,0.75c1.02-0.52,1.87-0.17,2.56,0.67
				c0.63,0.77,1.23,1.09,1.97,0.11c0.48-0.63,1.2-0.47,1.79-0.28c0.96,0.31,1.28-0.11,1.37-0.95c0.1-0.91,0.24-1.83,0.3-2.74
				c0.08-1.13,0.58-1.25,1.55-0.87c1.24,0.48,1.91,1.36,2.24,2.59c0.42,1.56,1.62,2.25,3.23,1.84c0.22-0.05,0.53-0.3,0.61-0.23
				c1.74,1.4,1.54-0.49,1.95-1.18c0.27-0.46,0.41-1.04,0.47-1.57c0.12-1.14,0.81-1.72,1.83-1.62c0.9,0.09,1.39-0.87,2.33-0.61
				c1.53,0.42,2.5,1.51,2.78,3.39c0.12,0.82,0.19,1.65,0.37,2.45c0.16,0.73,0.48,1.22,1.32,0.51c0.91-0.76,1.51,0.04,2.12,0.56
				c0.8,0.68,1.25,0.56,1.43-0.47c0.09-0.5,0.15-1.02,0.07-1.51c-0.23-1.57,1.19-2.5,1.47-3.87c0.08-0.38,0.44-0.08,0.69-0.06
				c1.19,0.07,1.97-0.44,2.08-1.68c0.09-1.05,0.07-2.12,0.15-3.17c0.02-0.3-0.23-0.83,0.37-0.85c0.39-0.01,0.89,0.03,1.03,0.52
				c0.41,1.47,1.29,1.9,2.8,1.66c1.37-0.22,2.48,0.89,2.43,2.36c-0.06,1.6-0.31,3.2-0.5,4.8c-0.13,1.16,0.05,2.2,1.02,2.98
				c0.24,0.2,0.44,0.54,0.81,0.36c0.37-0.18,0.47-0.54,0.42-0.94c-0.08-0.69-0.16-1.37-0.24-2.06c-0.24-1.97-0.1-3.86,1.07-5.56
				c0.41-0.6,0.81-0.84,1.43-0.24c0.71,0.68,1.61,0.81,2.56,0.78c1.98-0.07,3.07,0.68,3.78,2.52c0.45,1.17,0.62,2.4,0.82,3.62
				c0.08,0.51,0.09,1.2,0.79,1.32c0.62,0.11,0.82-0.45,1.1-0.88c0.57-0.88,1.24-0.94,2.08-0.31c1.09,0.8,1.66,0.55,1.8-0.77
				c0.12-1.13,0.42-2.16,1.21-3.01c1.41-1.53,1.82-1.61,3.58-0.5c0.98,0.62,1.41,0.24,1.68-0.72c0.23-0.82,0.39-1.76,1.59-0.82
				c0.51,0.4,0.83-0.16,1.11-0.49c0.92-1.1,1.87-0.93,2.88-0.13c1.46,1.15,2.08,3.38,1.39,5.07c-0.14,0.34-0.41,0.74-0.09,1.02
				c0.4,0.35,0.71-0.13,0.87-0.38c0.49-0.74,1.08-0.61,1.67-0.28c0.72,0.4,1.4,0.87,2.08,1.33c0.49,0.34,0.8,1.09,1.62,0.64
				c0.77-0.43,1.3-1.05,1.35-1.95c0.02-0.45-0.1-0.91-0.18-1.36c-0.24-1.29,0.02-2.47,0.75-3.55c1.01-1.49,1.93-1.49,2.98-0.04
				c0.54,0.74,0.74,1.57,0.64,2.48c-0.13,1.2,0.22,2.27,0.83,3.28c0.18,0.3,0.3,0.73,0.79,0.61c0.4-0.11,0.54-0.45,0.6-0.84
				c0.06-0.36,0.14-0.72,0.23-1.08c0.11-0.42,0.35-0.75,0.74-0.95c0.71-0.37,4.27,0.3,4.81,0.97c0.45,0.55,0.9,0.88,1.65,0.66
				c1.02-0.3,1.68,0.25,2.17,1.04C152.04,154.67,152.51,155.81,152.89,157.01z"/>
			<path class="st0" d="M314.99,152.43c0.25-0.11,0.51-0.2,0.75-0.34c1.36-0.82,1.36-0.82,1.65,0.7c0.1,0.53,0.29,1,0.82,1.18
				c0.54,0.19,0.88-0.22,1.14-0.59c0.92-1.31,2.56-2.14,2.53-4.09c-0.01-0.52,0.6-0.78,1.15-0.82c0.56-0.04,0.88,0.31,1.01,0.77
				c0.43,1.59,0.83,3.19,1.22,4.79c0.09,0.35,0.03,0.74,0.13,1.08c0.12,0.45,0.08,1.09,0.8,1.1c0.65,0.01,1.15-0.3,1.41-0.92
				c0.04-0.08,0.04-0.18,0.07-0.27c0.24-0.67,0.3-1.68,1.26-1.51c0.93,0.16,0.47,1.13,0.58,1.77c0.05,0.31,0.02,0.81,0.2,0.9
				c1.38,0.73,1.19,2.11,1.59,3.3c0.33,1,1.46,1.62,2.34,2.3c0.29,0.22,0.74,0.35,0.6,0.8c-0.16,0.52-0.63,0.23-0.93,0.18
				c-5.02-0.75-10.07-0.98-15.14-0.85c-1.53,0.04-3.04,0.15-4.37,1.03c-0.34,0.23-0.7,0.21-1.06,0.17c-3.21-0.4-6.44-0.22-9.67-0.35
				c-2.26-0.09-4.5-0.55-6.73-0.6c-2.9-0.06-5.71-0.62-8.56-0.86c-0.48-0.04-1.08,0.04-1.46,0.3c-2.35,1.6-5.08,1.51-7.71,1.81
				c-3.03,0.35-6.07,0.36-9.11,0.32c-6.09-0.09-12.16,0.39-18.2,0.94c-4.3,0.39-8.61,0.59-12.91,0.93c-0.64,0.05-1.18-0.2-1.7-0.48
				c-2.36-1.31-4.85-1.34-7.38-0.72c-3.23,0.79-6.56,0.9-9.82,1.48c-1.46,0.26-2.94-0.02-4.39-0.28c-1.13-0.2-1.74-0.82-1.62-1.99
				c0.12-1.19-0.41-1.73-1.56-1.99c-1.93-0.44-3.8-1.07-5.83-0.96c-1.04,0.06-1.93-0.53-2.84-0.97c-0.53-0.25-1.16-0.67-1.63-0.05
				c-1.27,1.69-1.88-0.11-2.57-0.56c-0.9-0.58-0.85-1.56-0.11-2.4c0.21-0.24,0.46-0.45,0.7-0.66c0.47-0.41,0.57-0.69-0.19-0.91
				c-1.37-0.4-1.55-0.93-0.73-1.99c0.23-0.3,0.48-0.55,0.49-0.95c0.02-0.8,0.54-1.12,1.25-1.22c1.19-0.16,1.99-0.72,2.46-1.91
				c0.42-1.07,2.07-1.65,3.19-1.25c1.14,0.41,1.44,1.3,1.29,2.44c-0.08,0.59-0.01,1.2-0.03,1.8c-0.03,0.95,0.35,1.61,1.32,1.81
				c1.15,0.24,1.98,0.87,2.64,1.84c0.65,0.95,1.59,1.52,2.76,1.63c2.17,0.2,2.78-0.34,2.92-2.48c0.07-1.1,0.18-2.21,0.38-3.29
				c0.21-1.12,0.71-2.22,1.9-2.49c1.14-0.25,1.78,0.76,2.45,1.51c0.44,0.5,0.61,1.13,0.73,1.77c0.12,0.68,0.44,1.23,1.07,1.51
				c1.29,0.58,1.95,1.62,2.32,2.92c0.17,0.6,0.51,1.2,1.15,1.23c0.7,0.03,0.69-0.73,0.88-1.21c0.13-0.34,0.16-0.72,0.31-1.06
				c0.25-0.57-0.05-1.65,0.94-1.56c0.89,0.08,1.99,0.58,2.11,1.53c0.13,1.1,1.01,1.72,1.25,2.72c0.26-1.74,0.85-3.41,0.43-5.19
				c-0.46-1.96,0.35-3.6,1.46-5.14c0.36-0.5,0.77-0.58,1.3-0.2c0.95,0.68,1.89,1.28,1.53,2.75c-0.11,0.45-0.39,1.42,0.78,1.3
				c0.3-0.03,0.33,0.26,0.41,0.46c0.26,0.64,0.67,0.99,1.39,0.78c0.42-0.12,0.71,0.03,0.94,0.37c0.52,0.81,1.11,0.64,1.72,0.11
				c0.23-0.2,0.41-0.57,0.8-0.41c0.45,0.18,0.31,0.61,0.32,0.96c0,0.05-0.01,0.09,0,0.14c0.12,0.49-0.38,1.43,0.65,1.3
				c0.84-0.11,1.18-0.88,0.98-1.69c-0.22-0.89-0.74-1.86,0.16-2.54c0.97-0.72,2.08-0.45,3.14,0.04c1.08,0.5,1.8,1.17,1.48,2.48
				c-0.1,0.41,0.03,0.61,0.46,0.64c0.51,0.03,0.6-0.2,0.56-0.67c-0.07-1-0.12-2.02,0.42-2.93c0.35-0.58,0.22-1.77,1.2-1.57
				c1.08,0.22,2.28,0.63,2.78,1.82c0.3,0.71,0.84,0.78,1.4,1.09c1.15,0.66,2.46,0.98,3.54,1.71c0.21,0.14,0.14,0.69,0.46,0.8
				c1.5,0.49,2.33,1.44,2.11,3.2c0.59-0.64,0.32-1.27,0.36-1.85c0.08-1.42-0.21-2.94,1.18-4.02c0.52-0.4,0.38-1.09,0.4-1.69
				c0.07-1.69,0.37-1.89,1.9-1.41c0.87,0.27,1.48,0.07,1.4-1.02c-0.04-0.56-0.13-1.17,0.54-1.41c0.62-0.22,0.87,0.38,1.2,0.73
				c0.61,0.67,1.39,1.22,1.42,2.28c0.01,0.59,0.82,0.5,0.97,0.84c0.62,1.43,1.91,1.88,3.17,2.47c0.74,0.34,1.09,1.65,1.8,1.53
				c0.77-0.12,0.42-1.43,0.92-2.08c0.86-1.11,1.59-2.24,1.14-3.78c-0.13-0.46,0.23-0.88,0.77-0.97c0.49-0.08,0.86,0.16,0.94,0.61
				c0.2,1.24,1.48,1.52,2.1,2.42c0.42,0.61,1.05-0.01,1.08-0.61c0.07-1.37,0.56-2.6,1.12-3.81c0.27-0.59,0.36-1.16-0.32-1.55
				c-0.78-0.45-0.55-1-0.08-1.46c0.49-0.48,1.04-0.91,1.63-1.26c0.63-0.38,1.12-0.24,1.33,0.57c0.2,0.78,0.19,1.54,0.02,2.32
				c-0.11,0.53-0.06,1.2,0.57,1.19c1.8-0.01,1.85,1.42,2.09,2.54c0.18,0.86,0.4,1.34,1.34,1.36c0.76,0.02,1.2,0.54,1.61,1.15
				c0.74,1.09,1.57,1.12,2.24,0c0.62-1.04,1.1-1.48,2.34-0.69c1.18,0.76,1.94,0.27,2.27-1.13c0.12-0.49,0.16-1,0.18-1.5
				c0.02-0.47-0.03-1.07,0.33-1.3c1.41-0.87,1.63-2.66,2.91-3.62c0.44-0.33,0.87-0.71,1.32-0.42c0.45,0.29,1.12,0.56,1.1,1.27
				c-0.04,1.32,0.48,2.32,1.58,3.02c0.3,0.2,0.48,0.5,0.45,0.81c-0.19,1.73,0.66,3.44,0.15,5.16c-0.29,0.97,0.8,1.16,0.83,2.21
				c0.61-1.05,0.46-1.91,0.69-2.69c0.1-0.34,0.09-0.69,0.35-1.01c1.32-1.63,2.33-1.63,3.91,0.03
				C314.52,151.58,313.55,152.91,314.99,152.43z"/>
			<path class="st0" d="M131.53,74.3c1.08-0.03,1.98,0.47,2.84,0.99c1.26,0.76,2.52,1.53,3.72,2.38c0.96,0.68,1.82,0.78,2.72-0.06
				c2.47-2.29,5.46-2.41,8.56-1.99c0.59,0.08,1.58,0.11,1.53,0.85c-0.06,0.8-1.01,0.96-1.76,0.98c-0.4,0.01-0.81-0.13-1.21-0.21
				c-0.96-0.2-1.84-0.01-2.59,0.63c-0.7,0.6-1.39,1.21-2.06,1.84c-0.91,0.86-0.83,1.33,0.29,1.8c0.55,0.23,1.12,0.4,1.74,0.36
				c0.4-0.02,0.74,0.16,0.85,0.56c0.15,0.52-0.24,0.77-0.61,0.95c-0.94,0.47-1.95,0.59-2.96,0.38c-1.86-0.38-3.74-0.47-5.63-0.52
				c-0.72-0.02-1.41-0.08-1.7-0.88c-0.28-0.77,0.38-1.04,0.81-1.43c1.23-1.13,1.18-1.49-0.29-2.29c-1.35-0.73-2.72-1.06-4.22-0.45
				c-1.15,0.47-2.4-0.33-2.83-1.88c-0.32-1.16,0.71-1.44,1.46-1.78C130.58,74.35,131.08,74.38,131.53,74.3z"/>
			<path class="st0" d="M187.73,170.69c-1.4,0.03-2.76-0.2-4.12-0.43c-1.7-0.28-3.37-0.19-5.08-0.03c-2.05,0.2-4.11,0.08-5.77-1.39
				c-0.58-0.51-1.1-1.18-0.42-2.03c0.64-0.79,1.28-0.45,1.93-0.05c1.46,0.89,3.09,0.9,4.69,0.74c2.04-0.21,4.04,0.06,6.04,0.29
				c2.21,0.26,4.41,0.13,6.62,0.09c1.06-0.02,2.11,0.07,3.17,0.1c0.33,0.01,0.79,0.06,0.79,0.39c0.02,1.25,0.9,1.84,1.74,2.48
				c0.43,0.33,0.37,0.72,0.21,1.11c-0.18,0.42-0.37,0.84-0.95,0.87c-1.3,0.07-2.57-0.11-3.83-0.4c-0.59-0.13-0.81-0.61-0.65-1.18
				c0.27-0.95-0.26-0.97-0.95-0.9C190.02,170.49,188.88,170.58,187.73,170.69z"/>
			<path class="st0" d="M226.83,172.26c-4.22-0.3-8.43-0.61-12.67-0.54c-2.26,0.04-4.5,0.09-6.75,0.31
				c-0.97,0.09-1.94,0.03-2.85-0.33c-0.52-0.2-1.1-0.5-0.96-1.17c0.16-0.78,0.85-0.9,1.53-0.82c2.29,0.28,4.58,0.32,6.88,0.34
				c5.29,0.04,10.57-0.06,15.85,0.34c0.42,0.03,0.83,0.03,1.19,0.26c0.36,0.22,0.73,0.47,0.64,0.96c-0.09,0.49-0.51,0.62-0.94,0.64
				C228.12,172.28,227.48,172.26,226.83,172.26z"/>
			<path class="st1" d="M221.08,63.01c0.06-1.62,0.18-3.22,1-4.67c0.63-1.12,1.39-1.19,2.29-0.25c1.39,1.46,1.67,4.89,0.53,6.58
				c-0.4,0.6-2.48,1.34-3.12,1.08c-0.47-0.19-0.69-0.6-0.7-1.09C221.06,64.11,221.08,63.56,221.08,63.01z"/>
			<path class="st0" d="M235.97,64.64c0.05,2.16-1.79,3.48-3.81,2.73c-0.13-0.05-0.26-0.1-0.39-0.13c-2.36-0.52-2.42-0.65-1.06-2.6
				c0.49-0.72,0.96-1.45,1.48-2.15c0.47-0.63,1.04-1.26,1.92-1.08c0.9,0.18,1.31,0.96,1.6,1.75
				C235.87,63.62,235.88,64.15,235.97,64.64z"/>
			<path class="st2" d="M242.97,66.89c1.01-0.01,1.52,0.44,1.83,1.1c0.3,0.62,0.54,1.26-0.08,1.9c-0.86,0.89-1.62,1.88-2.9,2.24
				c-0.79,0.22-1.33-0.13-1.81-0.67c-0.53-0.58-0.24-1.11,0.13-1.61c0.57-0.78,1.13-1.56,1.73-2.31
				C242.2,67.13,242.63,66.87,242.97,66.89z"/>
			<path class="st3" d="M200.76,64.03c0.02-0.43-0.01-0.95,0.41-1.23c0.5-0.33,0.97-0.02,1.39,0.25c1.54,1,2.18,2.57,2.47,4.27
				c0.17,0.98-0.51,1.35-1.42,0.95C201.77,67.46,200.62,66.19,200.76,64.03z"/>
			<path class="st1" d="M194.81,74.54c-1.39-0.13-2.59-0.64-3.59-1.6c-0.45-0.44-0.76-0.99-0.4-1.6c0.38-0.65,1.02-0.98,1.77-0.75
				c1.09,0.34,2.2,0.71,3.09,1.46c0.53,0.44,1.41,0.81,1.04,1.72C196.39,74.59,195.51,74.42,194.81,74.54z"/>
			<path class="st4" d="M187.6,83.51c-0.88,0.1-1.7,0.1-2.47-0.29c-0.54-0.27-0.8-0.72-0.8-1.34c0-0.63,0.45-0.88,0.93-1.05
				c0.7-0.25,1.39-0.36,2.15-0.14c0.92,0.26,1.82,0.63,2.81,0.68c0.61,0.03,1.07,0.44,1.13,1.03c0.07,0.7-0.6,0.7-1.06,0.82
				C189.4,83.46,188.48,83.58,187.6,83.51z"/>
			<path class="st2" d="M249.1,72.95c1.03,0.23,1.56,0.91,1.98,1.68c0.38,0.7-0.28,0.99-0.63,1.34c-0.51,0.51-1.08,1.01-1.71,1.36
				c-0.62,0.34-1.36,1.01-2.03,0.02c-0.6-0.88-1.07-1.73,0.13-2.56C247.65,74.24,248.14,73.25,249.1,72.95z"/>
			<path class="st2" d="M210.91,63c0-0.37-0.03-0.74,0.01-1.1c0.05-0.52-0.13-1.23,0.59-1.38c0.68-0.14,1.32,0.18,1.65,0.77
				c0.8,1.44,0.59,3.03,0.47,4.58c-0.03,0.41-0.48,0.53-0.87,0.47c-0.8-0.13-1.57-0.4-1.78-1.28c-0.15-0.66-0.12-1.37-0.17-2.05
				C210.84,63,210.87,63,210.91,63z"/>
			<path class="st5" d="M259.53,93.19c-0.69,0-1.38,0.02-2.07-0.01c-0.61-0.03-1.08-0.32-1.18-0.95c-0.11-0.7,0.38-1.05,0.96-1.11
				c1.4-0.15,2.84-0.48,4.2,0.18c0.52,0.26,1.11,0.72,0.93,1.38c-0.16,0.6-0.85,0.36-1.33,0.39c-0.5,0.03-1.01,0.01-1.52,0.01
				C259.53,93.11,259.53,93.15,259.53,93.19z"/>
			<path class="st5" d="M252.88,82.92c-0.85,0-1.38-0.15-1.77-0.58c-0.37-0.41-0.78-0.87-0.62-1.45c0.18-0.62,0.83-0.48,1.29-0.53
				c0.77-0.08,1.55-0.07,2.33-0.12c1.01-0.07,1.43,0.67,1.61,1.39c0.19,0.76-0.67,0.7-1.12,0.86
				C253.96,82.71,253.28,82.83,252.88,82.92z"/>
			<path class="st5" d="M248.31,148.5c0.01,0.76-0.34,1.14-1.08,1.14c-0.66,0-1.12-0.32-1.04-0.98c0.08-0.73,0.32-1.56,1.23-1.58
				C248.32,147.07,248.18,147.93,248.31,148.5z"/>
			<path class="st6" d="M314.99,152.43c-0.12,0.36-0.23,0.72-0.42,1.3c-0.51-0.94-0.35-1.72-0.44-2.45
				C314.54,151.57,314.18,152.44,314.99,152.43z"/>
			<path class="st7" d="M311.6,131.13c-1.13,0.69-2.29,0.37-3.42,0.46c-0.49,0.04-1.05-0.15-1.42,0.33
				c-0.77,1.01-1.85,0.99-2.9,0.76c-2.25-0.51-4.55-0.65-6.83-0.98c-2.64-0.38-5.1,0.39-7.24,1.77c-3.8,2.45-7.84,2.6-11.94,1.44
				c-4.42-1.25-8.9-1.49-13.41-1.27c-4.6,0.22-9.2-0.07-13.8,0.05c-4.34,0.11-8.46,1.22-12.66,1.94c-1.27,0.22-2.54,0.43-3.8,0.7
				c-1.83,0.39-3.44-0.01-4.93-1.13c-2.38-1.8-4.7-3.69-7.58-4.72c-2.15-0.77-4.23-0.71-6.31,0.16c-2.37,1-3.62,0.86-5.38-1.07
				c-1.64-1.8-3.58-2.46-5.92-2.32c-0.81,0.05-1.53,0.21-2.22,0.64c-3.36,2.12-7.15,3.35-10.65,5.2c-0.7,0.37-1.62,0.28-2.41,0.5
				c-1.96,0.53-3.86,1.24-5.38,2.67c-1.16,1.09-2.39,1.22-3.77,0.4c-2.09-1.25-4.23-2.42-6.31-3.69c-0.85-0.51-1.64-0.64-2.61-0.43
				c-1.21,0.26-2.48,0.51-3.69,0.39c-2.41-0.23-4.4,0.64-6.36,1.84c-0.82,0.5-1.68,0.98-2.57,1.31c-1.67,0.6-3.32,0.64-4.86-0.46
				c-0.37-0.26-0.83-0.58-1.23-0.56c-3.85,0.2-7.07-1.83-10.53-2.98c-2.83-0.94-5.62-2.04-8.35-3.21c-2.81-1.2-5.68-2.37-8.3-4
				c-1.76-1.09-3.61-2.02-5.42-3.03c-2.7-1.5-5.48-2.73-8.47-3.58c-2.08-0.59-4.07-0.64-6.09,0.06c-1.87,0.65-3.69,1.42-5.38,2.47
				c-0.98,0.61-1.99,1.15-3.12,1.44c-0.26,0.07-0.53,0.18-0.74,0.35c-2.53,2-5.58,3.1-8.3,4.76c-0.64,0.39-1.15,0.6-1.51-0.31
				c-0.1-0.25-0.35-0.39-0.67-0.39c-3.59,0.01-7.1-0.98-10.71-0.89c-1.11,0.03-2.58-0.24-2.76-1.35c-0.2-1.22,1.26-1.62,2.28-1.99
				c2.83-1.03,5.82-1.28,8.78-1.6c0.43-0.05,0.64-0.17,0.88-0.47c1.13-1.39,2.3-2.76,3.42-4.16c1.87-2.34,4.39-3.22,7.22-2.91
				c1.68,0.18,2.6-0.3,3.48-1.7c1.96-3.11,5.12-4.84,8.27-6.45c2.98-1.52,6.22-2.17,9.59-2.08c0.69,0.02,0.93,0.69,1.57,0.7
				c4.06,0.06,7.32,2.16,10.64,4.13c0.54,0.32,1.18,0.56,1.8,0.68c3.01,0.57,3.21,0.31,3.93-2.1c0.86-2.89,3.28-4.6,5.65-6.21
				c2.91-1.98,6.05-2.27,9.33-0.96c4.54,1.81,8.72,4.33,12.98,6.69c1.49,0.83,2.97,1.68,4.67,1.97c0.45,0.08,0.93,0.16,1.36,0.08
				c0.66-0.12,1.43-0.26,1.44-1.19c0.02-0.84-0.59-1.05-1.26-1.19c-0.31-0.07-0.62-0.18-0.9-0.32c-0.37-0.18-0.85-0.31-0.9-0.77
				c-0.06-0.54,0.41-0.83,0.81-1.01c5.28-2.34,9.45-6.35,14.26-9.39c2.71-1.71,5.32-2.01,8.14-0.28c1.72,1.05,3.58,1.88,5.38,2.8
				c0.59,0.3,1.18,0.45,1.85,0.19c0.91-0.36,1.22-0.81,0.43-1.59c-0.65-0.64-1.24-1.35-2.22-1.57c-0.4-0.09-1.05-0.2-1-0.75
				c0.05-0.53,0.6-0.77,1.12-0.87c2.62-0.51,5.25-0.52,7.74,0.49c3.44,1.4,6.85,2.86,9.94,5.01c2.03,1.41,4.06,2.76,6.89,2.66
				c1.35-0.04,2.47-0.14,3.5-0.84c6.36-4.3,12.43-3.04,18.4,0.88c2.77,1.82,5.11,4.24,8.05,5.81c0.77,0.41,1.54,0.85,2.35,1.14
				c0.37,0.13,0.93,0.76,1.28-0.03c0.31-0.71,0.19-1.41-0.62-1.71c-0.96-0.36-1.81-0.89-2.62-1.5c-0.39-0.29-1.01-0.47-0.89-1.08
				c0.11-0.54,0.67-0.72,1.15-0.89c2.66-0.98,5.35-0.73,8.02-0.13c2.56,0.57,4.87,1.7,6.83,3.45c1.26,1.12,2.47,2.48,3.77,3.33
				c2.51,1.65,4.77,3.56,7.12,5.38c0.52,0.41,1.2,0.36,1.69,0.01c0.65-0.47-0.01-0.85-0.25-1.25c-0.42-0.72-0.06-1.08,0.63-1.09
				c0.64-0.01,1.27,0.15,1.91,0.24c1.79,0.24,3.36,1.2,5.13,1.58c0.96,0.21,1.63,1.2,2.08,2.12c1.11,2.23,2.71,4.15,3.93,6.31
				c0.25,0.43,0.65,0.63,1.03,0.89c4.16,2.89,8.83,4.69,13.59,6.29C307.4,129.83,309.43,130.64,311.6,131.13z"/>
			<path class="st8" d="M239.93,82.15c-1.46-0.53-2.43-1.77-3.67-2.63c-0.87-0.6-1.68-1.05-2.77-1.07c1.03-0.95,2.57-1.07,3.24-0.08
				c0.96,1.4,2.39,2.27,3.5,3.49C240.27,82.12,240.22,82.26,239.93,82.15z"/>
			<path class="st9" d="M248.05,93.76c0.26,0.44,0.82,0.71,0.67,1.27c-0.02,0.09-0.49,0.19-0.61,0.1
				C247.61,94.74,247.93,94.23,248.05,93.76z"/>
			<path class="st10" d="M231.93,76.45c0.02-0.58,0.24-0.85,0.64-0.92c0.08-0.01,0.28,0.16,0.27,0.24
				C232.82,76.29,232.43,76.37,231.93,76.45z"/>
			<path class="st11" d="M252.79,98.68c-0.18-0.03-0.41-0.03-0.38-0.27c0.03-0.32,0.31-0.42,0.59-0.45
				c0.24-0.02,0.54,0.06,0.47,0.33C253.39,98.54,253.08,98.65,252.79,98.68z"/>
			<path class="st12" d="M208.43,92.5c-0.03-0.66,0.19-0.95,0.69-0.97c0.08,0,0.26,0.16,0.24,0.22
				C209.29,92.22,208.96,92.41,208.43,92.5z"/>
			<path class="st13" d="M199.66,82.72c0.08-0.62,0.23-1.01,0.74-1.12c0.07-0.02,0.26,0.13,0.26,0.2
				C200.64,82.34,200.25,82.53,199.66,82.72z"/>
			<path class="st14" d="M225.92,75.56c-0.16-0.46-0.34-0.76-0.13-1.09c0.03-0.05,0.28-0.04,0.35,0.03
				C226.48,74.83,226.28,75.12,225.92,75.56z"/>
			<path class="st15" d="M226.93,94.5c0.29-0.53,0.5-0.76,0.92-0.7C227.9,94.37,227.5,94.37,226.93,94.5z"/>
			<path class="st16" d="M239.93,82.15c0.1-0.09,0.19-0.19,0.29-0.28c0.34,0.04,0.51,0.28,0.8,0.59
				C240.48,82.63,240.19,82.42,239.93,82.15z"/>
			<path class="st17" d="M153.21,158.89c0.3,1.43,0.06,1.71-1.5,1.76C152.33,160.13,152.81,159.62,153.21,158.89z"/>
			<path class="st18" d="M72.2,154.78c0.19,0.7,0.41,1.19-0.16,1.57c-0.14,0.09-0.38,0.22-0.46,0.01
				C71.3,155.71,71.81,155.37,72.2,154.78z"/>
			<path class="st19" d="M244.36,163.52c-0.48,0.59-0.99,0.47-1.55,0.48C243.4,163.45,243.4,163.45,244.36,163.52z"/>
			<path class="st20" d="M223.59,61.98c-0.08,0.44-0.39,0.68-0.79,0.81c-0.18,0.06-0.39,0.01-0.38-0.22c0.03-0.42,0.2-0.79,0.66-0.9
				C223.33,61.6,223.51,61.71,223.59,61.98z"/>
			<path class="st1" d="M194.94,104.47c1.37,0.52,2.41-0.28,3.53-1.45c2.04-2.13,2.89-2.13,5.41-0.18c0.88,0.68,1.7,0.91,2.76,0.84
				c1.81-0.13,3.58,0.01,5.17,1.06c0.33,0.22,0.77,0.3,1.18,0.34c0.55,0.06,1.06,0.18,1.13,0.78c0.08,0.63-0.53,0.77-0.95,1.03
				c-1.06,0.66-2.03,0.26-2.76-0.43c-1.24-1.17-2.74-1.2-4.21-1.1c-1.49,0.1-2.69-0.13-3.68-1.34c-0.75-0.91-1.72-0.78-2.58-0.11
				c-0.8,0.62-1.54,1.31-2.29,1.99c-0.59,0.55-1.29,0.79-2.03,0.52c-1.1-0.4-2.07-0.2-3.02,0.39c-0.27,0.17-0.57,0.38-0.88,0.1
				c-0.35-0.32-0.17-0.67,0.02-1C192.4,104.8,193.39,104.36,194.94,104.47z"/>
			<path class="st1" d="M243.19,112.86c-0.76,0.08-1.43-0.29-2-0.73c-2.47-1.92-5.14-2.28-8.05-1.19c-0.4,0.15-0.89,0.51-1.2-0.11
				c-0.28-0.56,0.1-0.95,0.48-1.3c1.95-1.82,4.22-1.49,6.5-0.93c1.21,0.3,2.33,0.86,3.37,1.54c0.81,0.52,1.58,1.11,2.64,1.01
				c0.39-0.04,0.76,0.15,0.84,0.57c0.09,0.5-0.39,0.56-0.7,0.69C244.48,112.65,243.88,112.91,243.19,112.86z"/>
			<path class="st1" d="M176.95,112.79c1.63,0.04,3.18,0.45,4.71,0.96c0.58,0.19,0.93,0.57,0.85,1.23
				c-0.09,0.75-0.69,0.61-1.16,0.64c-0.92,0.06-1.86,0.06-2.69-0.39c-1.07-0.58-2.11-0.49-3.18-0.07c-1.37,0.53-2.74,1.04-4.12,1.55
				c-0.5,0.19-1.04,0.27-1.32-0.31c-0.25-0.5,0.07-0.94,0.46-1.18C172.48,113.99,174.48,112.76,176.95,112.79z"/>
			<path class="st3" d="M278.9,123.3c-0.7-0.02-1.4-0.25-2.07-0.54c-1.35-0.59-2.71-0.79-4.14-0.31c-0.5,0.17-1.05,0.21-1.25-0.44
				c-0.22-0.68,0.24-0.97,0.77-1.24c1.84-0.94,3.59-0.14,5.33,0.31c1.1,0.28,2.13,0.86,3.32,0.4c0.33-0.13,0.66,0.05,0.79,0.39
				c0.17,0.43-0.1,0.71-0.45,0.88C280.5,123.09,279.74,123.27,278.9,123.3z"/>
			<path class="st21" d="M125.09,115.89c-0.3,0.47-0.71,0.53-1.13,0.49c-1.48-0.13-2.88-0.59-4.25-1.1c-0.8-0.3-0.99-1.02-0.25-1.44
				c1.12-0.64,2.31-1.28,3.66-1.34c0.35-0.01,0.81,0.02,0.94,0.43c0.14,0.45-0.28,0.59-0.59,0.79c-0.44,0.29-1.22,0.49-1.06,1.11
				c0.18,0.68,0.99,0.67,1.62,0.76C124.37,115.64,124.77,115.4,125.09,115.89z"/>
		</g>
	</g>
</g>
</svg>
