<?xml version="1.0" encoding="utf-8"?>
<!-- Generator: Adobe Illustrator 23.0.5, SVG Export Plug-In . SVG Version: 6.00 Build 0)  -->
<svg version="1.1" id="Layer_1" xmlns="http://www.w3.org/2000/svg" xmlns:xlink="http://www.w3.org/1999/xlink" x="0px" y="0px"
	 viewBox="0 0 560 42.14" style="enable-background:new 0 0 560 42.14;" xml:space="preserve">
<style type="text/css">
	.st0{fill:#FEB097;}
	.st1{fill:#FEFEFE;}
</style>
<g>
	<g>
		<path class="st0" d="M0.19,24.59c4.85-0.82,9.73-1.51,14.62-2.12c6.45-0.8,12.9-1.65,19.36-2.41c3.89-0.46,7.79-0.8,11.68-1.2
			c4.02-0.42,8.04-0.87,12.06-1.26c2.52-0.25,5.04-0.41,7.56-0.62c3.78-0.31,7.56-0.62,11.34-0.92c1.95-0.15,3.91-0.29,5.87-0.41
			c4.99-0.31,9.97-0.62,14.96-0.92c1.33-0.08,2.65-0.12,3.98-0.18c5.06-0.26,10.12-0.41,15.18-0.65c4.05-0.19,8.1-0.25,12.15-0.39
			c6.81-0.23,13.62-0.24,20.43-0.4c5.74-0.14,11.47-0.17,17.21-0.06c5.48,0.11,10.97,0.04,16.45,0.16c4.88,0.1,9.75,0.21,14.63,0.39
			c3.57,0.13,7.15,0.27,10.72,0.38c4.24,0.13,8.47,0.35,12.71,0.57c4.33,0.23,8.65,0.48,12.98,0.76c4.51,0.29,9.02,0.61,13.53,0.95
			c5.55,0.42,11.09,0.85,16.63,1.34c5.16,0.46,10.31,0.99,15.46,1.52c2.51,0.26,5.01,0.65,7.53,0.86c1.29,0.11,2.56-0.34,3.82-0.6
			c6.3-1.33,12.64-2.42,18.98-3.55c4.07-0.72,8.13-1.48,12.21-2.15c3.98-0.66,7.98-1.23,11.98-1.83c3.09-0.47,6.17-0.96,9.27-1.4
			c3.59-0.51,7.19-0.97,10.79-1.45c3.13-0.41,6.26-0.83,9.39-1.21c3.2-0.38,6.4-0.72,9.6-1.07c2.48-0.27,4.96-0.55,7.44-0.81
			c2.23-0.24,4.46-0.47,6.69-0.68c3.27-0.32,6.54-0.63,9.81-0.92c2.46-0.22,4.91-0.42,7.37-0.61c4.1-0.32,8.19-0.63,12.29-0.93
			c2.02-0.15,4.04-0.29,6.06-0.4c5.43-0.32,10.86-0.63,16.29-0.93c1.29-0.07,2.59-0.11,3.89-0.18c4.21-0.21,8.42-0.26,12.62-0.47
			c4.33-0.21,8.67-0.25,13.01-0.4c3.55-0.13,7.1-0.05,10.64-0.16c10.84-0.34,21.68-0.16,32.52-0.12c4.28,0.02,8.56,0.07,12.83,0.19
			c4.15,0.12,8.29,0.25,12.44,0.37c4.71,0.13,9.43,0.34,14.13,0.57c2.97,0.15,5.94,0.41,8.92,0.35c0,13.45,0,26.89,0,40.34
			c-0.33,0.17-0.69,0.09-1.03,0.09c-185.98,0-371.97,0-557.95,0c-0.34,0-0.7,0.09-1.03-0.09C0.19,36.13,0.19,30.36,0.19,24.59z"/>
		<path class="st1" d="M0.19,41.9c186.67,0,373.34,0,560.01,0c-0.04,0.06,0.1,0.2-0.1,0.19c-0.25-0.01-0.51,0-0.76,0
			c-186.1,0-372.2,0-558.29-0.01C0.77,42.08,0.4,42.3,0.19,41.9z"/>
	</g>
</g>
</svg>
