<svg xmlns="http://www.w3.org/2000/svg" id="ba655a8f-b4ad-4c33-a1da-708fab31f9a8" width="847.02" height="535.575" data-name="Layer 1" viewBox="0 0 847.02 535.575"><title>reviewed_docs</title><rect width="206" height="2" x="641.02" y="515.788" fill="#3f3d56"/><polygon fill="#a0616a" points="765.971 223.569 765.971 237.359 775.623 252.527 782.518 224.948 765.971 223.569"/><path fill="#e6e6e6" d="M941.082,283.05788l7.54033-2.153s11.76454,2.153,11.76454,15.94223,2.75783,68.94594,2.75783,68.94594l-2.75783,31.71514s4.13675,1.37892,2.75783,5.51567S959.008,416.813,957.629,415.43409s-1.37892-4.13675-1.37892-4.13675-22.0627,4.13675-20.68378,0,1.37892-13.78919,2.75784-13.78919-1.37892-41.36757-1.37892-41.36757Z" transform="translate(-176.48993 -182.21233)"/><polygon fill="#a0616a" points="639.8 218.743 657.726 240.806 679.789 267.005 686.683 235.29 674.357 233.355 661.863 214.606 639.8 218.743"/><path fill="#2f2e41" d="M861.10472,393.37139s-20.68378,11.03135-6.89459,85.493l4.13675,74.46162,2.75784,122.72377H888.6831l5.51567-121.34486,16.547-77.21945,26.19946,68.94594-9.65243,122.72378,37.2308,5.51567L976.9339,536.779l-22.0627-102.04-16.547-28.9573-3.4473-7.584Z" transform="translate(-176.48993 -182.21233)"/><path fill="#2f2e41" d="M865.24148,671.913l-4.13676,12.41026s-5.51567,22.06271,13.78919,19.30487S887.30418,688.46,887.30418,688.46l-1.37892-16.547Z" transform="translate(-176.48993 -182.21233)"/><path fill="#2f2e41" d="M928.67174,667.77624S924.535,681.56543,924.535,688.46s2.75784,9.8946,2.75784,9.8946,78.59837,5.27351,77.21945-1.62109-9.65243-9.65243-9.65243-9.65243L975.555,682.94435,961.7658,671.913l-27.57838-6.8946Z" transform="translate(-176.48993 -182.21233)"/><circle cx="720.467" cy="40.173" r="26.199" fill="#a0616a"/><polygon fill="#a0616a" points="739.772 51.204 743.908 89.814 734.256 107.74 710.814 81.541 708.056 59.478 739.772 51.204"/><path fill="#e6e6e6" d="M907.988,273.40545l-21.627-17.198-4.57249,6.16663-34.473,13.78919,1.37892,60.67243s1.37892,51.02,9.65243,56.53567l-3.44729,4.82622,82.04567,3.44729V364.4141l17.92594-79.9773-31.71513-17.92594-3.947-5.58274Z" transform="translate(-176.48993 -182.21233)"/><path fill="#e6e6e6" d="M852.83121,278.92113l-2.00848-4.16072-4.88612,1.40288s-9.65243,4.13676-16.547,22.0627-26.19946,57.91459-26.19946,57.91459-5.51568,6.8946-1.37892,13.78919,8.27351,22.0627,8.27351,22.0627-4.13675-1.37892-1.37891,4.13676,2.75783,11.03135,11.03135,9.65243,24.82054-5.51567,23.44162-9.65243-2.75784-11.03135-5.51568-11.03135-6.89459-20.68378-6.89459-20.68378l2.75783-11.03136,20.68379-24.82053Z" transform="translate(-176.48993 -182.21233)"/><path fill="#2f2e41" d="M899.71445,203.08059s-4.13676,0-4.13676-1.37892c0,0-14.42328-.4402-20.31137,5.985s-4.50917-3.22719-4.50917-3.22719-15.1681-6.89459-2.75783-13.78919l1.37891,1.37892s2.75784-4.13676,12.41027-5.51567l-1.37892-1.37892s0-1.37892,6.8946-1.37892,24.82054-6.8946,26.19946,8.27351c0,0,11.03135-4.13676,11.03135,9.65243s-1.37892,20.68379-1.37892,20.68379-2.75784-6.8946-8.27351-2.75784S899.71445,203.08059,899.71445,203.08059Z" transform="translate(-176.48993 -182.21233)"/><ellipse cx="106.501" cy="462.545" fill="#e6e6e6" rx="106.501" ry="11.005"/><rect width="129.221" height="160.461" x="41.89" y="302.135" fill="#e6e6e6"/><rect width="92.301" height="4.26" x="60.561" y="358.174" fill="#fff"/><rect width="92.301" height="4.26" x="60.561" y="373.084" fill="#fff"/><rect width="92.301" height="4.26" x="60.561" y="387.994" fill="#fff"/><rect width="92.301" height="4.26" x="60.561" y="402.904" fill="#fff"/><path fill="#e6e6e6" d="M308.34511,417.68517a25.28307,25.28307,0,1,1-3.9184-13.54383A25.35178,25.35178,0,0,1,308.34511,417.68517Z" transform="translate(-176.48993 -182.21233)"/><path fill="#fff" d="M304.42671,404.14134l-24.9579,24.95329c-1.56861-2.42849-10.30768-13.7144-10.30768-13.7144a35.36357,35.36357,0,0,1,3.57727-3.15778l7.24672,9.66232L301.504,400.36585A25.24938,25.24938,0,0,1,304.42671,404.14134Z" transform="translate(-176.48993 -182.21233)"/><ellipse cx="451.117" cy="456.088" fill="#e6e6e6" rx="106.501" ry="11.005"/><rect width="129.221" height="160.461" x="386.506" y="295.679" fill="#e6e6e6"/><rect width="92.301" height="4.26" x="405.177" y="385.002" fill="#fff"/><rect width="92.301" height="4.26" x="405.177" y="399.912" fill="#fff"/><rect width="92.301" height="4.26" x="405.177" y="414.822" fill="#fff"/><rect width="92.301" height="4.26" x="405.177" y="429.732" fill="#fff"/><path fill="#fff" d="M609.94241,535.00452H580.61658a102.56855,102.56855,0,0,1,0-34.96542h29.32583A62.91477,62.91477,0,0,0,609.94241,535.00452Z" transform="translate(-176.48993 -182.21233)"/><rect width="53.96" height="3.55" x="445.647" y="321.101" fill="#fff"/><rect width="53.96" height="3.55" x="445.647" y="333.882" fill="#fff"/><rect width="53.96" height="3.55" x="445.647" y="346.662" fill="#fff"/><rect width="53.96" height="3.55" x="445.647" y="359.442" fill="#fff"/><path fill="#e6e6e6" d="M652.96091,412.06114a25.28317,25.28317,0,1,1-3.9184-13.54383A25.35177,25.35177,0,0,1,652.96091,412.06114Z" transform="translate(-176.48993 -182.21233)"/><path fill="#fff" d="M649.04251,398.51731l-24.95789,24.95328c-1.56862-2.42848-10.30769-13.71439-10.30769-13.71439a35.36455,35.36455,0,0,1,3.57727-3.15779l7.24672,9.66232,21.51892-21.51891A25.24931,25.24931,0,0,1,649.04251,398.51731Z" transform="translate(-176.48993 -182.21233)"/><ellipse cx="280.781" cy="522.678" fill="#3f3d56" rx="124.816" ry="12.898"/><rect width="151.444" height="188.057" x="204.227" y="337.533" fill="#6c63ff"/><rect width="108.174" height="4.993" x="225.862" y="377.474" fill="#fff"/><rect width="108.174" height="4.993" x="225.862" y="394.949" fill="#fff"/><rect width="108.174" height="4.993" x="225.862" y="412.423" fill="#fff"/><rect width="108.174" height="4.993" x="225.862" y="429.897" fill="#fff"/><rect width="108.174" height="4.993" x="225.862" y="447.372" fill="#fff"/><rect width="56.583" height="19.971" x="251.657" y="465.678" fill="#fff"/><path fill="#6c63ff" d="M494.98058,438.93742a37.99362,37.99362,0,1,1-5.88828-20.35267A38.09678,38.09678,0,0,1,494.98058,438.93742Z" transform="translate(-176.48993 -182.21233)"/><path fill="#fff" d="M489.0923,418.58475l-37.50488,37.498c-2.3572-3.64934-15.48963-20.609-15.48963-20.609a53.14175,53.14175,0,0,1,5.37566-4.74528l10.88983,14.51982,32.337-32.337A37.94244,37.94244,0,0,1,489.0923,418.58475Z" transform="translate(-176.48993 -182.21233)"/></svg>